<svg id="Layer_1" data-name="Layer 1" xmlns="http://www.w3.org/2000/svg" viewBox="0 0 277.45 353.1"><title>logo</title><path d="M362,370.59c0,4-.21,6.63,0,9.27.61,6.59-.38,13.14-1.27,19.55s-1,13.23-3.77,19.37c-.74,10.41-5,19.92-8.22,29.6A132.9,132.9,0,0,1,337,473.93a195.15,195.15,0,0,1-13.28,20c-3.37,4.36-7,8.47-10.59,12.61a155.88,155.88,0,0,1-12.84,12.49A99.61,99.61,0,0,1,283,531.52c-3.21,1.87-6.39,3.85-9.74,5.44a126,126,0,0,1-19.07,7,124.32,124.32,0,0,1-14.22,3.16c-9.23,1.55-18.42.61-27.61.7a52.31,52.31,0,0,1-14-2.16c-4.91-1.35-9.73-3-14.53-4.73a104.47,104.47,0,0,1-18-8.5c-4.6-2.7-8.89-5.81-13.35-8.69a51.28,51.28,0,0,1-7.38-6.32c-3.85-3.68-7.49-7.59-11.35-11.26-6.45-6.15-11.58-13.38-16.49-20.69A154.9,154.9,0,0,1,105,464.09a239,239,0,0,1-10-25.33,168.51,168.51,0,0,1-4.75-16.48c-.92-4.11-1.75-8.36-2.39-12.59-.41-2.71,0-5.73-1-8-1.28-2.85,0-5.57-.84-8.15-2-6.48-.65-13.07-.9-19.6a146.21,146.21,0,0,1,.13-20c.34-3.53.27-7.14.92-10.58,1.09-5.74,1.57-11.61,3-17.24,2.22-8.7,4-17.54,7.25-26,2.2-5.75,4.75-11.38,6.91-17.12,2.31-6.15,6.07-11.46,8.86-17.32,2.21-4.63,5.58-8.72,8.61-12.93,2.53-3.51,5.31-6.84,8-10.24a133.35,133.35,0,0,1,14.32-15A112.26,112.26,0,0,1,164,211.91c3.91-2.22,7.88-4.3,11.9-6.29a141.32,141.32,0,0,1,21.82-7.68c3.87-.87,7.81-1.32,11.65-2.1,8-1.62,16.08-.4,24.11-.78,2-.09,4.05.62,6.08.94,2.19.34,4.4.59,6.58,1,2,.4,3.93.95,5.87,1.49s3.87,1.11,5.77,1.77a125,125,0,0,1,20.35,8.77,148.2,148.2,0,0,1,15.43,9.87,157.61,157.61,0,0,1,21.31,19.57,170.53,170.53,0,0,1,12,15A93.76,93.76,0,0,1,334,264.54c3.17,5.82,7.19,11.19,9.14,17.71,1,3.5,3.34,6.61,4.64,10.06A147.71,147.71,0,0,1,354,311.7c.58,2.57,1.43,5.13,2.2,7.61a52.83,52.83,0,0,1,1.56,7.27c.75,4.7,2.75,9.24,2.2,14.13,1.48,2.56.47,5.46,1.08,8.07C362.89,356.45,361.45,364.19,362,370.59Zm-4,1.57c-.59-6.34.88-12.76-.93-19.09-.75-2.62.53-5.52-.69-8.23-1.13-2.49.51-5.52-1.38-7.92,0-5.93-2.1-11.48-3-17.25-.84-5.22-2.64-10.27-4.32-15.21A165.55,165.55,0,0,0,340.41,286c-3.32-7-6.58-14-10.66-20.56a166.7,166.7,0,0,0-16.94-23,145,145,0,0,0-25.49-22.76c-5.15-3.56-11-6-16-9.72-7.15-2-13.68-5.55-21-7.4a141.62,141.62,0,0,0-22-3.44c-5-.46-10.05-.73-15.1.71-2.85.8-6,.4-9.08,1-3.71.69-7.39,1.59-11,2.58-9.41,2.58-18.24,6.89-26.56,11.78a109.1,109.1,0,0,0-22.09,16.73c-4.53,4.53-9.23,8.9-13.09,14.06-2.78,3.71-5.84,7.2-8.45,11-3,4.35-5.44,9.09-8.28,13.51-5.42,8.42-9.17,17.55-12.65,26.78-2.12,5.62-3.67,11.52-5.49,17.26-1.94,6.13-2.89,12.42-4.48,18.58a74.78,74.78,0,0,0-1.94,13.15c-.35,4.69-1.07,9.37-1.17,14.06-.15,7.83,0,15.66,0,23.49,0,1-.36,2.21.07,3,1.2,2.14,1.08,4.4.88,6.61s.71,4.4,1,6.59c.27,1.93-.34,4.26.54,5.76,1.08,1.86-.35,3.83,1.16,5.58,1.18,1.37-.43,3.88,1.33,5.41.28,5.86,2.47,11.27,4,16.84a139.83,139.83,0,0,0,7.9,21.72c5.33,11.6,10.93,23,18.94,33.18,3.77,4.77,7.05,9.95,11.42,14.21,5.19,5.05,10.14,10.32,15.74,15a108.59,108.59,0,0,0,17.17,11.8,112.6,112.6,0,0,0,26.48,10.91c6.79,1.73,13.54,3.35,20.46,3.5,7.35.15,14.7.44,22.11-.68a133.1,133.1,0,0,0,16.55-3.65A103.6,103.6,0,0,0,282,527c7.29-4.65,14.32-9.64,20.45-15.86,7.32-7.43,14.54-14.86,20.54-23.48a146.33,146.33,0,0,0,10-15.87,250,250,0,0,0,11.57-24.7A227.09,227.09,0,0,0,352,423.14c1-3.8,2.56-7.56,2.06-11.65,2.35-4.46,2.27-9.54,2.76-14.27.73-7.13,1.92-14.32,1.25-21.56C357.91,374.51,358,373.33,358,372.16Z" transform="translate(-84.78 -194.97)"/><path d="M252.54,228.59a26.26,26.26,0,0,0-2.49,4.1c-1,2.6-.38,5.78-3,7.77-.09.07-.09.32-.05.46.7,2.83-1,5.34-1,8.09,0,1.39.17,2.23,1.83,2a1.76,1.76,0,0,1,1.14.54,5.14,5.14,0,0,1-.73,1.68c-.81,1.21-2.15.88-3.17.67a11,11,0,0,1-4.24-1.74c-1.52-1.13-2.84,1.66-4.17-.06-3.42.31-6.69-1.34-10-1-4,.37-7.7-1.12-11.6-1.15-.64,0-1.28-.87-1.92-1.34.41-.47.77-1.3,1.22-1.35a2,2,0,0,0,1.57-3.19c-1.65-2.26-.65-4.92-1.68-7.34-.91-2.16-1.9-4.82-1.25-7.51.09-.35-.26-.89-.53-1.24s-.76-.86-1-.8a1.68,1.68,0,0,0-1,1A11.9,11.9,0,0,0,210,231c0,5.67-.06,11.33,0,17,0,1.55-.55,2.56-1.94,2.94a2.51,2.51,0,0,1-3.09-1.75c-1.67-4-3.41-7.92-5-11.94-.84-2.16-1.28-4.47-2.07-6.64-.42-1.18-1-.15-1.26.21s-.8,1.3-.61,1.65A19.4,19.4,0,0,1,198,243.21c-.18,2.71.38,4.74,3.19,5.84a1.68,1.68,0,0,1,.07,2.95,27.45,27.45,0,0,1-8.76,2.93c-3,.58-4.17-2-5.46-4-1.41-2.26-2.16-4.87-4.25-6.77a4.19,4.19,0,0,0-4.45-.92,12,12,0,0,0-2.42,1.38c-3.24,1.92-3.67,1.07-1.89,5.3.3.71.74,1.36,1,2.09,1.22,3.55,1.64,3.9,5,4,.5,0,1,0,1.49,0,1.32.06,2.22,1.69,1.32,2.64a9.69,9.69,0,0,1-3.46,2.45,13.14,13.14,0,0,0-6.2,4.32c-1.29,1.74-2.93,1.83-5,1.42-.43-2.05.64-4.61-1.85-6.16-1.31-.81-2.33-1-3.44,0-1.67,1.61-3.28,3.27-4.88,4.86,2,4.19,2,4.19,6,4.91-1.63,3.2-5.06,6.6-7.74,7.51-1.36.46-2.32,1-2.24,2.66a6.83,6.83,0,0,1-2.57,5.43,20.88,20.88,0,0,1-5.7,1.92c-1.49,0-3,0-4.49,0-2.6.05-5,0-7.25-1.91-1.7-1.49-4.4-1.81-5-4.57a1.79,1.79,0,0,0-1-1c-3.73-1.37-4.52-4.76-6.09-7.9-1.77-3.52-.38-6.2,1.09-8.84.88-1.56,2.92-2.46,4.35-3.75.67-.61,1.67-1.48,1.61-2.16-.16-1.92.83-3.46,2.27-3.33s3.33.11,4.52,1.65a21.73,21.73,0,0,0,3.18,3.18c.69.6,1.8.8,2.33,1.49a5.48,5.48,0,0,1,.72,2.65,3.48,3.48,0,0,1-1.66.51c-1.65,0-3.57.43-4.86-.28a4.24,4.24,0,0,0-4.09-.38,19.16,19.16,0,0,0-4.88,3.86c-1.36,1.49-.26,6.37,1.67,8.41a36.32,36.32,0,0,0,11.42,8.6c3.92,1.78,8.91.82,9.52-4.91.32-3,0-5.47-1.75-7.46-.76-.88-1.64-1.66-2.46-2.49-.41-.41-1.15-.79-.24-1.41.73-.48,0-2,1.62-2,1.93,0,5.49,1.63,5.59,3.83.11,2.36,3.11,3.21,2.23,5.67,0,.05.48.43.61.37a2,2,0,0,0,.72-.68c1.14-1.63,1.25-3.73.1-4.95s-1.17-2.91-2-4.24c-1.38-2.24-2.33-4.81-4-6.82-3.42-4.22-4.38-9.56-7-14.14-.71-1.26,1.15-3.63,2.71-4a6.1,6.1,0,0,1,6.57,2.85c2,3.29,5.87,4,7.7,7.17,2.52.47,3.42,2.93,5.23,4.26,1.61,1.18,3.94,1.61,4.3,4.15,0,.24.74.53,1.16.56,1.14.08,2.29,0,3.8,0-.38-1.65-.39-3.31-1.13-4.52-3-4.93-4.83-10.34-6.85-15.67a14.38,14.38,0,0,0-4.07-5.29c-.35-.32-1.44-.48-1.62-.25-.86,1-1.28.29-1.83-.25-.74-.72-.65-1.34,0-2.08,1.89-2,4.34-3,6.86-4,1.3-.48,2.84-.82,3.74-1.74,2.5-2.55,5.64-2.72,8.57-2.09,2,.43,3.9,2.1,5.43,3.63a14,14,0,0,1,2.77,4.8c.28.7-.25,1.85-.69,2.64-.7,1.3.59,3.06-1,4.08.81.94,1.67,1.85,2.42,2.84s1.58,2.34,2.38,3.5a35.89,35.89,0,0,0,2.26,3.05c.23.27,1.13.38,1.27.2a12.3,12.3,0,0,0,2.38-3.49,6.27,6.27,0,0,0-.34-3.3c-.43-1.64-1.91-3.64-1.38-4.75,1-2.19,0-3.92-.27-5.75a68.72,68.72,0,0,0-2-8.67c-.1-.4-.83-.75-1.33-.91-2-.62-2.17-1-.78-2.33a11.91,11.91,0,0,1,2.3-1.68,4.66,4.66,0,0,1,6.91,3.16c.41,1.78,1.55,3.4,1.9,5.19.86,4.44,3.18,8.4,4.08,12.82a6.41,6.41,0,0,0,1,2.08,1.5,1.5,0,0,0,1,.68,1.22,1.22,0,0,0,.9-.8,27.12,27.12,0,0,0,0-3c0-6,.2-12-.1-18-.12-2.47,1.12-3.2,2.8-4.19,2-1.16,4-1,6.11-.9.68,0,1.31.79,2,1.22-.32.47-.55,1.12-1,1.39a4.21,4.21,0,0,0-1.6,5.66c1.16,1.92.56,4,1.62,5.89.92,1.66.07,4.24.23,6.39.11,1.38.77,2.71.92,4.09s0,3,.08,4.49a1.55,1.55,0,0,0,.82,1.12,28.2,28.2,0,0,0,5.31,1.61,5.76,5.76,0,0,0,3.05-1,1.86,1.86,0,0,0,.74-1.48c-.27-5.24,1.18-10.33,1.25-15.58,0-3.11,1-6.3.63-9.89-1.75,0-3.54,0-5.33,0-2,0-3.85-1.06-3.43-1.83.65-1.2,1.73-2.92,2.77-3a34.93,34.93,0,0,1,9.85.26,13.9,13.9,0,0,0,3.71.52c1.08-.09,1.9,1.61,3.28.17.56-.6,3.5,2.32,3.22,3.42a2.22,2.22,0,0,1-1.37,1.37,20,20,0,0,1-3.47.11c-3.44.06-4.74,1.39-5.1,4.88-.2,1.88.93,4-.95,5.6,1.79,1.73-.74,3.3-.14,5.2s.16,4,.1,6a9.72,9.72,0,0,1-.44,2.31c-.5,1.77,0,2.8,1.56,3.05,2.19.35,4.61-.87,6.62,1,.16.14.94-.18,1.24-.47a4.1,4.1,0,0,0,1-1.56c1-3.24,2.67-6.46,2.85-9.76.21-3.91,2.45-7.19,2.51-11,1.46-1.19.35-1.95-.45-2.77-1.11-1.15-2.76-2.11-1.65-4.12.82-1.48,1.82-1.53,5.12-.43.44.15,1,0,1.43.17a3.93,3.93,0,0,1,3.17,3.25c.46,4.18.49,8.42,1.15,12.56.26,1.66-1.5,2.89-.23,4.77.86,1.27-.56,3.53,1.06,5-2.71,2.71.7,4.91.49,7.44,1.14-2.8,2.45-5.4,2.7-8.5a27.16,27.16,0,0,1,2.44-8.45c.85-1.94-.49-4.3,1.38-6a3.37,3.37,0,0,0-.93-1.52c-.71-.58-1.74-.83-2.34-1.49a3.44,3.44,0,0,1-.64-2.19c0-1.33,1.15-.75,1.86-.89,3.82-.77,6.43,2.19,9.69,3.18.29.09.47,1.2.35,1.75s-.83,1.07-1.17,1c-2.6-.46-3.17,1.5-3.73,3.19-1.13,3.38-2,6.83-3.05,10.24a9.45,9.45,0,0,1-1,2.09c-1.86,3-1.79,6.57-3,9.77a1.83,1.83,0,0,0,.5,1.7,2.08,2.08,0,0,0,1.91,0c1.18-.92,2.77-1.91,3.11-3.16,1.3-4.68,5.43-7.35,7.54-11.39a6.91,6.91,0,0,1,.91-1.62c2.05-2.21,3-4.47,1.05-7.31-.33-.48,0-1.63.34-2.28.23-.4.46-1.33,1.74-.66,5.13,2.67,10.4,5.05,14.82,8.89A15.25,15.25,0,0,0,295.8,239a4.67,4.67,0,0,1,2.18,6.34c-.78,1.52-1.94,2.81-2.05,4.68a3.06,3.06,0,0,1-1.38,1.87c-1.22.81-2.52-.11-2.57-1.58a7.18,7.18,0,0,1,1.89-4.73c1.74-2.26,1.31-1.86-1-3.69-3-2.36-7.09-2.95-9.51-6.08-.76-1-1.1-.23-1.81.08-3.23,1.38-3.94,4.6-5.5,7.18a1.9,1.9,0,0,0,0,1.46c1,2.27,5.13,2.89,6.86,1a3.64,3.64,0,0,0,1-1.56c.22-1.24,1-1.28,1.7-.77s2,1.29,1.19,2.33c-2.59,3.37-4.46,7.16-6.68,10.75-.42.67-.95,1.28-1.46,2-1-1.29-2.49-1.83-1.11-3.57a3.59,3.59,0,0,0-.13-3.52,7.92,7.92,0,0,0-4-2.08c-.65-.16-1.71.73-2.34,1.37a11.64,11.64,0,0,0-1.45,2.38c-.47.81-.89,1.65-1.42,2.41-1.53,2.16-1.63,2.3.4,3.8a81.33,81.33,0,0,0,7.47,4.9c3.16,1.84,4.9,1.36,6.91-1.59a14.75,14.75,0,0,1,1.53-2.34c.51-.5,1.56-1.11,2-.89,1,.5,2.1,1.57,1.44,2.78-1.83,3.35-3.9,6.61-7.73,8a3,3,0,0,1-2.24-.51c-4.41-2.65-8.59-5.79-13.23-7.92a19.81,19.81,0,0,1-5.45-3.71c-.24-.23-.49-.69-.71-.68-4.26.24-3-3-3.71-5.33-1.43-4.71-.48-9.43-.92-14.12C253.7,234.84,253.09,232,252.54,228.59Zm-83,12.54a37.72,37.72,0,0,0,5.63-1.18c3.72-1.35,5.91-4.42,5.85-7.69,0-2.5-1.68-4-4.15-4.3-3.33-.46-5.65,1.71-8.19,3-2.25,1.18-2,1.61-.85,4.35C168.5,237.07,168.87,238.9,169.52,241.13Zm-9.43,16.41c-.16-.65-.13-1.07-.32-1.24-2.4-2.12-4.81-4.23-7.31-6.24-.23-.18-1.13.32-1.63.65s-.86.56-.3,1.41c1.43,2.16,2.56,4.53,3.89,6.77.52.87,1.47,1.58,2.46,1.06A23,23,0,0,0,160.09,257.54Z" transform="translate(-84.78 -194.97)"/><path d="M246,351c-.07-4.05,2.08-7.1,4.52-10,1.66-2,1.7-1.93-.16-4.16-.19-.22-.24-.56,20.63.9,22.72.46,23.83,2.13,25.12,2.18s2.72-.62,4.09-.89c.22,0,.53.3.79.46-2.07,1.87-.17,1.45.88,1.51a3.28,3.28,0,0,0,1,0c.66-.18,1.31-.44,2-.67a7.36,7.36,0,0,1,.13,2.41,12.86,12.86,0,0,1-1.56,3.34c-1.63,2.53-1.68,2.5,1,3.93,1.5.8,3,1.67,4.52,2.37,4.62,2.07,7.61,1.72,10.18-2.13,1.65-2.47,4.6-5.06,2-8.89-.9-1.33.25-4.24,1.4-4.24,3.45,0,4.37-3.18,6.6-4.67,1-.67.83-1.64.95-2.62.43-3.8-.75-7.22-2.29-10.57a40.81,40.81,0,0,0-6.09-9.92c-3.25-3.7-6.4-7.74-11.73-9-3.91-.9-7.67-2.63-11.61-3.26-5.63-.91-11.29.27-16.6,2-4.06,1.34-8.37,2.7-11.45,6.11a21,21,0,0,1-9.33,6.45c-4.86,1.52-8.36,5.18-11.9,8.71-2.21,2.21-3.46,4.63-3,7.76s2.34,5.4,4,7.81c.17.23,1,0,1.46,0,0-.35.1-.88-.08-1-1.26-1-1.95-2.18-1-3.92a23.14,23.14,0,0,0,1.37,2.18,20.75,20.75,0,0,0,1.75,1.76c.64-1.67,3.05-.34,3.29-1.44.49-2.29,1-1.11,1.9-.38a31.22,31.22,0,0,0,2.91,1.83,31.78,31.78,0,0,0-4,0,3.23,3.23,0,0,0-2,1c-2.56,3.82-5,7.73-7.7,12,2.75,0,5.07-.13,7.36,0a56.45,56.45,0,0,1,6.58,1c2.51.48,5,1.4,7.59,1,1.45,1.58,3.44.56,5.06,1.07a20.53,20.53,0,0,0,5.6,1,20,20,0,0,1,3.59.93c1.22.26,2.45.28,3.72.62a59.88,59.88,0,0,1,10.15,3.31c1.44.69,2.38-.11,2.53-1.65a73.61,73.61,0,0,1,1.09-8.56c.22-1,1.42-2.1.81-3a7.76,7.76,0,0,0-3-2.17,3.9,3.9,0,0,0-2.28-.45c-1.89.33-3.07-.94-25.66-3.3-24-2.6-25.79-4.47-26-7.28a24.89,24.89,0,0,1,.07-6,8.55,8.55,0,0,1,2.1-4.08c4.29-4.53,8.66-8.86,15.1-10.56,2.27-.6,4.28-2.84,6-4.72a22.25,22.25,0,0,1,10-6.05c9.92-3.19,11.59-3.73,20.7-2.9,5.63.51,11.52,1.83,16.33,5,3.37,2.19,6,5.63,8.63,8.78a55.82,55.82,0,0,1,4.55,7.08c.57.92,1.54,2,1.41,2.86-.45,3.09,2.52,5.09,2.2,8.19-.23,2.19-.73,4.11-2.28,5.55s-2.8,3.62-5.14,4.43a2.67,2.67,0,0,0-1.69,3.18c.05.32,0,.67,0,1,1,5.46-2,9.11-5.87,12-2.13,1.58-4.87,1.19-7.35.08a21.8,21.8,0,0,1-3.38-1.46c-1.29-.9-3-2.33-4-1.44s-1,3.15-1.39,4.81a6.26,6.26,0,0,0,0,1.5c.05,1.43.77,1.82,1.83.91,1.41-1.21,1.39.69,2.14.85-2.16,2.23.84,4.32.16,6.69-.52,1.82.1,4-2,5.19.27,1.39-2.63,2.64-.18,4.12-.22,1.57.48,3.14-.58,4.75s-.5,3.91-1.23,6a21.1,21.1,0,0,1-10.11,12.16c-2.43,1.3-4.23,3.77-7.47,3.8-.95,0-1.91,1.69-2.84,2.63-1.86,1.87-1.85,1.88-.29,4.18,2.51,3.7,2.95,9.62,1.25,13.88a18.33,18.33,0,0,1-8.87,9.62c-1.85,1-4.47.45-6.75.53a1,1,0,0,1-.92-1.62c.3-.39.71-.7,1-1.07,2.75-3.05,2.9-3.59,2.41-8.17-4.64,4.32-10.25,5.26-16.31,4.8,1.22-3.17,2.92-6.16,3.49-9.35,1-5.8,4.54-9.11,9.53-11.39,1.12-.51,2.27-.95,3.78-1.57a17.19,17.19,0,0,1-1.95-2,5.42,5.42,0,0,0-7.84-1.45c-2.45,1.59-8.33,1-9.75-1.22a16.42,16.42,0,0,1-1.54-4.84,22.84,22.84,0,0,1-.05-2.49c-.11-.83-1.46-1.24-2.36-.74-1.22.68-2.41,1.4-3.62,2.11.15-1.39-.34-2.9-1.74-2.61-1.6.33-2.95,1.52-4.77,1.79-1,.14-2.44,1.92-2.34,2.81.28,2.55-1.25,4.18-2.08,6.21a17.28,17.28,0,0,1-4.1,6.29,10,10,0,0,1-2.5.93l1.31-1.7c1.79-2.31,1.79-3.45-.45-4.67a13.36,13.36,0,0,1-5.36-5.31c-1.23-2.14-1.64-2.12-4.29-.93-1.07.48-2.18.87-4.23,1.69,1.29-1.66,2.16-2.38,2.5-3.3,1-2.75,3.73-2.4,5.64-3.51s2.3,1,3.55,1c.83,0,2,1.37,2.35,1.13,2.47-1.7,5.18-.32,7.66-.9a18.69,18.69,0,0,0,5.14-2,3.14,3.14,0,0,0,1.43-2.54,2.1,2.1,0,0,0-2.8-1.35,35.89,35.89,0,0,1-13.67,2,8.71,8.71,0,0,0-2.63.83L214,392a8.9,8.9,0,0,1,1.85-2c2.14-1.2,4.53-1.87,6.39-3.66.54-.52,1.82-.27,2.86-.32,2.09,1.24,6.62,1.35,9.92.05-3.53,0-6.78,0-9.92-.05.33-.39.74-1,1.18-1,2.31-.1,4.63.06,6.94-.1a4.46,4.46,0,0,0,2.44-1.19c.67-.62.63-1.74-.5-1.69-1.73.06-2.25-.35-2.31-2.17,0-.66-1.8-1.29-2.8-1.89-1.42-.85-1.43-.83-.05-3,0,.5-.18,1.33,0,1.45a9.6,9.6,0,0,0,4.85,1.64,4,4,0,0,0,3.28-1.78c1.4-1.61,3-1.69,4.78-.87a6.26,6.26,0,0,0,1.28.55c1.48.31,2.22-.53,1.78-2a2.39,2.39,0,0,0-2.38-2c-1.19,0-2.37-.15-3.38-.22,1.44-1.95,3.12-1.89,4.9-.78.48.3,1,.05,2.23-.83a1,1,0,0,1,.91-.12c.2.13.39.71.27.86-2.09,2.76-2.1,5.48,0,8.2.1.13.34.25.33.35a12.48,12.48,0,0,1-.24,1.36,4,4,0,0,0-.7-.32c-.77-.18-1.67-.67-2.28-.43-2.57,1-5.06,2.28-7.58,3.45l.1.59H245a40.86,40.86,0,0,0-2.35,3.85,10.17,10.17,0,0,0-.47,2.69c.9,0,2.06.37,2.65-.05,1.85-1.3,2.89-.32,4.21.83,1.05.92,1,1.95,1,3.11,0,1.45-.14,3.07.44,4.3.94,2,4.36,2.43,6.76,1.53,1.62-.61,2.62-1.81,3.81-2.88,1-.84.73.16,1,.61a2.13,2.13,0,0,0,1.38.88c3.9.35,6.53-.41,10.87-2.67.68-.36,1.78.09,2.68.17l-.59,1.41c.65,0,1.4.31,1.94.08,2.12-.9,4.14-2.06,6.27-2.94,4.53-1.86,12.19-10.17,14.59-14.31,1.23-2.13-.41-4.7,1.77-6.26-.63-.81-1.48-2.41-1.85-2.31-1.3.36-2.21-1.79-3.75-.12-2.72,2.94-3.72,2.78-6.91-.07-1.14,1.87-4,2.59-3.44,5.55-1.18.8-1.67,2.64-3.46,2.47-1.49-.13-1.61.65-1.55,1.78a8.73,8.73,0,0,1,0,3c-.53,1.6-1,3.37-2.67,4.25a1.28,1.28,0,0,1-.91-.16c-.1-.05-.12-.54,0-.66,2.35-2.31,3.71-4.79,1.69-8-.07-.11.7-1.07,1.07-1.06,2.2,0,3.95-.24,3.92-3.07,0-.52.6-1.09,1-1.55a32.57,32.57,0,0,1,3.54-3.51c2.36-1.82,1.06-4.28,1.37-6.45.24-1.64-1.26-2.25-2.16-3.07-1.95-1.79-4.51-1.64-6.89-1.35a5,5,0,0,0-3.91,3.47c-1.53,4-5.14,5.5-8.44,7.29-1.89,1-4.42-.86-3.47-3,.88-2,.51-1.82-1.19-2-1.05-.07-2.85-.79-.93-2.44a47.12,47.12,0,0,1-1.75-4.77,5.31,5.31,0,0,1,0-3.28c.2-.45,1.77-.29,4.22,7,3.82,7.41,4.21,4.52,6.49,5.13,1.09-1.37,2.53-2.33,3.27-4.15a8.39,8.39,0,0,1,11.64-4.27,12.66,12.66,0,0,1,4.94,4.58,4.34,4.34,0,0,1-.51,4.65c-.56.71-.38,2.21-.17,3.27.25,1.29,2.07,1.62,3.06.69a7,7,0,0,0,1.39-1.43c.68-1.22,1-3.05,2.84-1,.17.19,1.17-.16,1.63-.48.67-.48,1.1-1.34,1.81-1.7,2.21-1.16,0-4,2.09-5.15a21.08,21.08,0,0,0-2.46-2.45,15.86,15.86,0,0,0-3.63-2A74.1,74.1,0,0,0,274,353c-1.38-.06-2.78-1.35-4.17,0-1.94-2.05-3.23-.43-4.21,1-.8,1.14-2.12,1.19-3.07,1.7-1.43.77-1.78.9-.43,1.94a3.08,3.08,0,0,1,.91,2.21,1.57,1.57,0,0,0,.61,1.13c.58.27,2-.13.7,1.18-1.82,1.78-2.41,3,1,2.91.2,0,.57.71.6,1.11.08,1.15,0,2.3-1.47-3.78-1-8-.58-8.65-.11-9.27,1-1.33.87-1.54-.77-2.13-2-.71-4-.71-6-1.08C250.67,348.63,250.62,348.49,246,351Zm-29.64,44c2.8-.51,4.11.91,5.46,2.31,2,2,4,4,6,6,.24.23.69.25,1,.37.05-.31.25-.72.13-.92-1.85-3-3.39-6.17-6.18-8.4C220.53,392.52,219.41,392.63,216.36,395Zm29.71-16.39c-4.73-2.31-6.67-1.93-10.91,2.11C239.15,381.84,242.52,380.06,246.07,378.6Zm-13.91,17.12c-.21-.58-.33-1.53-.66-1.62a3.42,3.42,0,0,0-2.27.24,2.64,2.64,0,0,0-1.25,2.87c.13,1.37,1.18,3,2,2.71s1.14-1.2,1.52-1.93A12.62,12.62,0,0,0,232.16,395.72Z" transform="translate(-84.78 -194.97)"/><path d="M137,444c1-.67,1.91-1.88,2.87-1.89,2,0,2.81-1.47,4.27-2.71l-3.38-2.66.42-.72a9,9,0,0,1,1.92.62c1.65.95,3.16.35,3.69-1.05.85-2.27,2.5-2.53,4.41-2.58,2.33-.05,4.66,0,7,0a3.13,3.13,0,0,0,3.23-1.89,5,5,0,0,1,1-1.07c1.65,1.15,2.55,3.67,5.23,2.92.49-.13,1.3-.69,1.25-.93-.33-1.9,1.21-2.6,2.18-3.62s1.78-.13,2.38.6c1.37,1.65,4.85,4.66,6,4.9.42.09,1.15,0,1.31-.25,1.24-2,2.73-1.67,4.43-.69.63.36.72-1.28,1.89-.51,1.52,1,3.69,1.11,5,2.26,2.24,2,4.51,1.48,6.81.78.79-.24,1.62-.92,2,0,.27.67.72,1.92-.61,2.51a2.37,2.37,0,0,0-1.22,1,9.45,9.45,0,0,0-.05,2.61c2.33-3.38,5.53-2.62,8.08-3.63a.88.88,0,0,1,.78.38,2.22,2.22,0,0,1-.14,1.33c-.76,1.41-2.12,1.29-3.45,1.29a3.92,3.92,0,0,0-1.27.49c.24.57.34,1.49.74,1.64,2.89,1.09,5,3.4,8.35,4.07s7.21.92,9.89,3.76c.62.67,2,1.5,1.9,1.8-.38,1,2.07,1.42.38,2.15-1,.44-.93-1-1.34-1.35a36.35,36.35,0,0,0-5.11-3.26,8.45,8.45,0,0,0-1.7-.7,6.07,6.07,0,0,0-1.05-.19c.08.45.1,1.28.24,1.3,2.18.33,2.08,1.54,1.37,3.12a6.14,6.14,0,0,0-.64,2.22c-.07,1.62-.21,2.81-2.17,1.34-.18-.14-.78.05-1,.27-1.1,1.06-3.61-.7-3.7,1.14-.13,2.61,2.87.1,3.87,1.76-1.8.81-3.55,1.71-5.4,2.35-.64.23-2.38.48-.85-1.28.54-.63.48-1.58-.79-1.66a2.08,2.08,0,0,1-.5,0c-2-.55-2.78,1.47-4.2,1.9s-2.65-2-4.34-.37a5.54,5.54,0,0,1-1.68.72l.58,1.42c-.45.11-1,.41-1.34.3a5.47,5.47,0,0,1-2.05-1c-2-1.82-3.63-2.44-6-.06-1.87,1.89-4.89,1.11-7.45,1.15-2.5-2.1-2.5-2.1-5,0-4,.56-7.72-1.36-11.67-1.2a7.52,7.52,0,0,0-1.92-1.63,15.33,15.33,0,0,1,2.1.79c.37.13.89-.19,1.34-.31a5.06,5.06,0,0,0-.76-1c-1.29-1.06-2.67-.66-2.68.56A5.27,5.27,0,0,1,154,460l3.91-.17v-.62L154,458c-1.07-2.27-2.78-3-5.33-3.14-2.18-.13-4.81-.59-6.09-2.86a16.76,16.76,0,0,1-1.55-4.75C140.4,444.26,140.47,444.24,137,444Zm59-1c-.15.71.48,1.81-.78,2-1.48.2-1.62.88-.81,1.9a10,10,0,0,0,2.11,2.09c1,.68,3.27-.34,3.39-1.83.18-2.24-1.23.08-1.51-.33A4.82,4.82,0,0,1,198,445c1.35.34,2.13-.5,2.88-1.38-.68-.54-1.37-1.09-2.06-1.62a5,5,0,0,0-1.15-.81C195.72,440.47,196,441.9,196,443Zm-8.09,9.64c3.5,1.27,2.94-1.63,4.21-2.36.45-.27.46-1.3.67-2-.78-.08-1.92-.53-2.29-.18-2.22,2.15-4.16.36-6.14-.29-1.22-.41-1.16-.54-1.57-.12s-.47.67-.28,1.43c.88,3.54,4.22,2.66,4.77-5.44l-.09.31a8.53,8.53,0,0,0-2.43.07c-.37.11-.66.93-.72,1.46a4.28,4.28,0,0,0,.45,1.47,5.52,5.52,0,0,1,.53-1.24c.16-.22.76-.44.82-.36,1.4,1.63,2.89,2.33,4.83.78.15-.12.73,1.29,1.26.25a1.74,1.74,0,0,0-.66-1.58C190,444.32,188.62,444.06,187.91,452.64Zm4.46-11.24a36.3,36.3,0,0,1-5-2.61A37.47,37.47,0,0,1,183.5,435c-.82.82-1.53,1.51-2.21,2.22-.42.44-1.14.95-1.1,1.38.05.7.48,1.82,1,2,2.08.59,3.19,3,5.92,2.56,1.74-.28,3.27-.83,1.76-8.38-.73.32-1.63.44-1.77.82-.25.73-.4,2,0,2.35.71.54,2.46.95,2.7.63.91-1.22,1.78,1.16,2.12,0a3.27,3.27,0,0,0-.61-2.6C190.76,435.27,189.68,435.11,192.37,441.4ZM205,453a12.5,12.5,0,0,1,1.5,0c.46.06,1.28.21,1.29.35a3.51,3.51,0,0,1-.38,1.68,3,3,0,0,1-1.09.95c-.38.23-1.49-.32-1,.83a16.49,16.49,0,0,0,1.49,2.18c.39-.38,1-.69,1.12-1.15.46-1.51,1.68-.52,2.46-.87s1.63-.89,2.44-1.34c-2-2.81,1.57-2,2.1-3.18-1.45-.38-1.83-.92-2.18-2.76-.05-.28-.49-.57-.81-.68-.59-.2-1.43-.06-1.8-.43-1.69-1.66-2.39.11-3.09,1-.39.47-.07,1.51-.07,2.3l-.93.58c-.52-.8-1-1.65-1.56-2.39-1.23-1.56-2.83-1.26-4.39-.63-.42.17-.72.68-1.07,1a5.45,5.45,0,0,0,1.15.54c.71.17,1.78-.36,1.79,1h-3.16c2.7,3,3.33,3.32,5.38,3C205.48,454.78,204.85,453.71,205,453Zm-29.83-11c1.1-.68,1.35-.95,1.63-1a2,2,0,0,0,1.62-2.89,4.78,4.78,0,0,0-4.49-2.08,2.19,2.19,0,0,0-1.49,1.07c-.68,1.47.95.52,1.2,1s.33,1.3.74,1.66c1.19,1-.09,1.43-.52,1.74-1.05.77-.59-.47-.89-.75a6,6,0,0,0-1.47-.81,3.42,3.42,0,0,0-.46,1.28c0,.58.19,1.52.54,1.66,2.51,1,5.07,2.07,7.68.28a6.29,6.29,0,0,0,.93-1.21ZM157.4,440.1c-.29,3.12-.06,3.51,2.39,3.89.63.11,1.28.09,1.91.22,1.53.31,2.24-.14,2.32-1.44,0-.68-1.64-.95-.44-1.83.95-.7-1.28-1.29,0-2.24.46-.34-1.39-2.19-2-1.67a16.23,16.23,0,0,0-2.56,2.87c-.22.33-.06,1.47.9.62,1.13-1,1.16.54,1.78.71-.29.47-.47,1.12-.89,1.35s-1.35.32-1.63,0A17,17,0,0,1,157.4,440.1Zm38.69,14.31a8.29,8.29,0,0,0,.71.88c1.16,1.08,1.92,2.47,3.15,3.54,1.45,1.27,1.13,1.37,2.1-.07.75-1.12.87-2.11-.34-2.46-1.69-.49-2.54-1.82-3.76-2.8-.19-.16-.7,0-1,.09S196.47,454,196.09,454.41Zm-47.73-9.54,3.66-3.36c-1.89-1.59-3.18-1.64-3.83-.2C150,442.43,147.18,443.59,148.36,444.87Zm38.75,10L187,454a29.3,29.3,0,0,0-3.25.05c-.28,0-.7.63-.69,1s.53,1,.7.94C184.89,455.68,186,455.27,187.11,454.9Zm-41.79-7.08c1.2-1.36-.11-3.31,1.65-4.42.11-.07-.21-.82-.33-1.26a5.64,5.64,0,0,0-1,.77C144.26,444.48,145.38,446.2,145.32,447.82Zm35.55,10.51c-1.33-.05-.16-2.29-1.7-1.94a7.13,7.13,0,0,0-2,1.29c1.1.44,2.2.89,3.32,1.29A5.07,5.07,0,0,0,180.87,458.33Z" transform="translate(-84.78 -194.97)"/><path d="M177.9,485.26a18.35,18.35,0,0,1-2.32-2.23c-1.28-1.71-3.05-1-4.58-1-1.18,0-1.59,1.13-2.1,2.27a23.33,23.33,0,0,1-3.37,4.59,1,1,0,0,1-.93,0c-.29-.31-.67-.88-.56-1.17.58-1.59,1.72-3.11,1.81-4.7.06-1.05,1.79-2.16.36-3.06-2.68-1.66-3.63-1.29-5.34.53-4.27,4.55-7.38,9.92-10.91,15a24.3,24.3,0,0,1-1.45,2.38c-1,1.07-.46,1.77.38,2.43,1.63,1.29,3.3,2.53,5.12,3.91a10.7,10.7,0,0,1-.84,1c-2.32,2.11-3.69,2.51-5.75.46-3.45-3.44-7.6-5.76-11.55-8.42a3.92,3.92,0,0,1-.71-.7c-.6-.69-1.72-1.19-.91-2.41a2.82,2.82,0,0,1,3.41-1.07c1.08.64,2,1.52,3.14,2.08,2.81,1.44,3.66,1.09,5.22-1.61a42.93,42.93,0,0,1,2.72-3.88c1-1.41,2.18-2.74,3.15-4.19s1.65-3.45,2.91-4.75,2-3.16,2.85-4.85a1.59,1.59,0,0,0-.65-2.42c-1.17-.73-2.53-1.14-3.73-1.83s-1.67-2.61-1.11-3.39a7.7,7.7,0,0,1,3.76-.92c2.78,1.13,4.73,3.54,7.56,4.69,1.7.68,3.92,2,4.32,3.51.68,2.55,3.12.83,4.2,2.58.78,1.28,3.27,1.44,4.92,2.25a42.18,42.18,0,0,0,9,3.61,9.26,9.26,0,0,1,3.62,2.06c3,2.59,3,2.78,1.32,6.5-.83,1.82-1.58,3.68-2.52,5.45-.24.46-1,.63-1.57.93a4.27,4.27,0,0,1-.75-1.51,41.54,41.54,0,0,1,0-5c0-.51.47-1.42.76-1.43,1.7-.08,1.38-1.42,1.12-2.13a3.3,3.3,0,0,0-1.91-1.86,10.34,10.34,0,0,0-4,0,3.09,3.09,0,0,0-1.89,1.35,18.22,18.22,0,0,0-2.1,4.61c-.61,2.47-2,4.58-2.83,6.82s-1.21,4.46-2.84,6.36c-1,1.2-.49,4.27.7,5.35.68.61,1.75.83,2.33,1.5a3.19,3.19,0,0,1,.5,2.21c0,.29-.95.54-1.49.72a1.67,1.67,0,0,1-1,0,107,107,0,0,0-10.74-3c-1.69-.41-3-2.77-2.51-3.63.66-1.12,2.94-2.1,4.34-1.1,2.26,1.6,2.68.18,3.48-1.32a93.83,93.83,0,0,0,5.06-11.9C174.31,491.68,176.21,488.62,177.9,485.26Z" transform="translate(-84.78 -194.97)"/><path d="M293,468.15a23.59,23.59,0,0,1-1.46,2.77c-.94,1.29-.64,2.22.26,3.46,1.92,2.66,3.56,5.51,5.36,8.25.53.81,1.46,1.4,1.8,2.26a19.83,19.83,0,0,0,6,8.5,3.11,3.11,0,0,1,1.07,3.07c-.17,2.05-1.87,3.21-3.71,2.27a34.11,34.11,0,0,1-7.2-4.27c-4.19-3.67-9.16-6.16-14.13-9.86a18.42,18.42,0,0,0,.63,3.44c1.07,2.62,3.81,4.07,4.54,7.13.62,2.63,4.24,3.46,5,6.4.2.77,2.79,1,3.39.35s1-1,1.82-.12,1.12,2.27.21,3a67.12,67.12,0,0,1-6.56,4.61,4.54,4.54,0,0,1-2.26.52,5.77,5.77,0,0,1-1.75-.5,6.41,6.41,0,0,1,.75-1.68c2.32-2.7,2.44-2.74.6-5.88a40.71,40.71,0,0,0-4.61-6.56,56.28,56.28,0,0,1-4.79-6.52c-1.43-2.11-2.93-4.43-6.21-3.85a2.12,2.12,0,0,1-2.7-2.1c-.09-1.33-.58-3,1.75-3.22.51,0,.88-1,1.43-1.34,2.7-1.81,4.31-1.85,6.78.25,1.7,1.46,3.72,2.44,5.4,3.7s3.09,3.12,4.78,4.18a40.53,40.53,0,0,1,6.9,5c1.07,1,3.17.53,4.09,2.15.06.1.61.1.65,0,.14-.27.28-.81.16-.89-2.26-1.66-2-5.31-5.06-6.36a1.63,1.63,0,0,1-.89-1.09c-.55-3.82-4.45-5.29-5.91-8.54a3.23,3.23,0,0,0-5-1.28,1.59,1.59,0,0,1-2.47-.28c-.63-.66-1.12-1.33-.27-2.06a23.5,23.5,0,0,1,4.56-3.47C288,468.69,290.18,467.52,293,468.15Z" transform="translate(-84.78 -194.97)"/><path d="M295.68,266c.76,2.42.32,4.21-1.58,5.42-3,1.93-2.37,5-2,7.6a6.72,6.72,0,0,0,4.34,5.17,18.2,18.2,0,0,0,6.71,1.87c2.17.05,3-2.12,4.81-2.66,0-2.41.44-5-1.21-7a16.21,16.21,0,0,1-3.1-5.23c-.88-2.55-1.59-5-.82-7.9.88-3.34,3.29-4.64,5.88-5.13,2.93-.54,6.17-.8,8.44,2.43,1.54,2.2,4,3.71,4.84,6.5.1.36.53.65.84.92.7.6,2,1.13,2,1.76a4.19,4.19,0,0,1-1.14,2.93,59.62,59.62,0,0,1-6.3,5.25c-.45.33-1.51-.17-2.3-.3a5.47,5.47,0,0,1,.46-1.68c3.12-4.4,3.45-7.07.3-11.07-1.18-1.49-3.58-2.26-5.57-2.78-1.57-.41-4,3.13-3.86,4.89.23,3.27,2,6.07,3.74,8.38a8.3,8.3,0,0,1,1.24,8.56c-1.09,2.87-2.82,5.59-6.72,5.07-2.38,2-4.81.95-7.14,0-3.89-1.62-7.37-3.86-8.48-8.22a5.39,5.39,0,0,0-1.67-2.8c-.75-.71-2.38-1.73-2.31-1.85.83-1.42,1-3.14,2.74-4.19A92.7,92.7,0,0,0,295.68,266Z" transform="translate(-84.78 -194.97)"/><path d="M285,510.54c-1.63,1.23-2.57,3.26-4.81,3.76-.59.13-1.12.6-1.7.68-3.27.41-3.46,0-2.68-3.37.31-1.36.81-3.14-.81-4-1-.53-2.85-.93-3.57-.39-1.43,1.07-3.44.49-4.63,2.29-1.55,2.33-1.06,4.53,1.74,5.47a8.18,8.18,0,0,1,1.68.76c.63.38.94.94.08,1.38-3.53,1.79-6.7,4.82-11.34,3.57.09-.56,0-1.23.26-1.41,3.78-2.72,3.07-6.49,2.32-10.18-.23-1.14.26-2.29-.51-3.45a12.5,12.5,0,0,1-1.06-3.53,41.65,41.65,0,0,1-1-4.08c-.2-1.24.13-2.45-.92-3.66-.58-.66-.11-2.23-.11-3.39s.49-2.77-.09-3.41c-1.83-2-.59-2.75,1-3.61,2.71-1.47,3.13-1.51,5,.43a21.89,21.89,0,0,1,2.48,3.45c2.14,3.42,4.23,6.88,6.35,10.32,1.63,2.65,3.34,5.25,4.9,7.94,1.7,2.94,1.64,2.93,5.89,2.92C284,509.06,284.44,509.94,285,510.54ZM266.32,505a12.21,12.21,0,0,0,2.94-1.83c.53-.63,1-2.12.66-2.56-1.57-2-3.69-3.48-4.15-6.21,0-.22-1.15-.36-1.75-.32-.35,0-1,.5-1,.71a57.8,57.8,0,0,0,1,7.45C264.31,503.18,265.45,503.94,266.32,505Z" transform="translate(-84.78 -194.97)"/><path d="M203,500.52c0,3.16.64,6.51-.2,9.43-.7,2.44-.59,4.75-.8,7.12-.26,2.84.18,5.23,3.51,6,.24,0,.52.86.43,1.23s-.66.5-1.05.69c-2.41,1.19-4.69.54-6.93-.53-.27-.13-.53-.32-.8-.46-1.51-.78-1.6-2-.24-3a6.69,6.69,0,0,0,2-1.82,3.79,3.79,0,0,0,0-2.45c-.32-1.3-2.57-2.66-4.2-2.72-.83,0-1.67,0-2.5,0-1,0-1.95-.34-2.46,1.46-.41,1.44-1.32,2.47,0,3.81a5.25,5.25,0,0,1,1.18,1.51c.11.29-.26,1.1-.52,1.15A11.39,11.39,0,0,1,188,522c-2.86-.1-5.49-1.13-8.15-2a1.3,1.3,0,0,1-.74-1c0-.33.41-.74.74-1a2.76,2.76,0,0,1,1.26-.56c2.88-.34,3.85-2.32,5.05-4.72,2.71-5.4,4.68-11.05,6.95-16.6a33.18,33.18,0,0,1,3.79-6.4c.57-.84,1.25-2.09,2.71-1.67,2.15.61,3.4,2,3.43,4C203,494.86,203,497.69,203,500.52Zm-4,2.79a9.84,9.84,0,0,0-.05-2.7,3.49,3.49,0,0,0-1.31-1.39c-.13-.09-.71.38-1,.66a4.22,4.22,0,0,0-1.74,3.26c0,1.28-.85,2.56-1.37,3.82s0,2.87,1,3a8.29,8.29,0,0,0,3.27-.39c.35-.11,1.57-.54.63-1.72-.45-.56-.29-1.75-.15-2.61A7.51,7.51,0,0,1,199,503.31Z" transform="translate(-84.78 -194.97)"/><path d="M215.28,490c2.21.1,4.88-.45,7.2,1,.56.36.84,1.14,1.25,1.73-1.2.26-.12,2.53-2,2.25a8.28,8.28,0,0,0-2,0c-2.36.22-3.35,1.75-2.91,4.35.13.79-.13,1.73.21,2.4.81,1.64-2.61,3.13-.08,4.71l0,5.47c0,1.83.07,3.67,0,5.49a3.58,3.58,0,0,0,1.36,3.47c.79.6,1.1,1.25,2.24.23.56-.51,2.44-.29,3.18.29,1.29,1,2.57.59,3.78.52,3.1-.17,4.48-2,3-4.66-1.25-2.34,0-3.18,1.15-4.57,1-1.19,1.54-.2,1.75.33,1.43,3.57,2.58,7.14.57,11-.69,1.3-1.37,2-2.9,2-2.06,0-4.11-.31-6.15.85-.76.43-2.3-.75-3.51-.84-2.15-.15-4.32,0-6.49,0-1.83,0-3.66,0-5.49,0a1.64,1.64,0,0,1-1.28-2.65,12.78,12.78,0,0,1,3-2.32,3.17,3.17,0,0,0,1.79-3.13c-.11-4.15,0-8.32-.09-12.47,0-1.37-1-2.78-.84-4.07a19.68,19.68,0,0,0,0-3.68c-.11-2.05-.55-3-2.74-2.72-.52.07-1.16-.4-1.65-.75-.73-.52-1.19-1.23-.38-2,1.14-1.13,2-2.61,4.1-2.21A21.74,21.74,0,0,0,215.28,490Z" transform="translate(-84.78 -194.97)"/><path d="M237.1,525.65v-3.33c1.73-1,3.76.31,5.58-1.22s3.33-2.77,2.18-4.49-.07-3.79-1-5.08c-1.18-1.59-.37-3.21-.9-4.66-1.27-3.53-.61-7.46-2.85-10.84-1.38-2.08-1.08-2.45-3.09-1.53a29.09,29.09,0,0,1-2.89,1.47,2.35,2.35,0,0,1-2.89-1.32,2.16,2.16,0,0,1,.66-3c.92-.58,1.88-1.55,2.82-1.54,4.37,0,8.36-2.08,12.67-2,1.07,0,1.83-1.59,3.26-.15,1.25,1.26,2,2.18.73,3.15a15.59,15.59,0,0,1-3.69,1.92,3.34,3.34,0,0,0-2.21,4,12.73,12.73,0,0,1,.5,3.29c-.07,4.67,1.41,9.08,2.51,13.5.41,1.64.13,3.2.72,5.1,1.66-.12,3.4.71,5.31-.73,1-.78,2.57-.13,3.33,1.21a2.74,2.74,0,0,1-1.12,3.38c-.93.53-2.06,1.32-3,1.18-3.34-.53-6.35,1.19-9.6,1.12C241.84,525,239.66,526.86,237.1,525.65Z" transform="translate(-84.78 -194.97)"/><path d="M214,392c-.12.28-.15.69-.36.83-5,3.53-6.58,9.22-8.25,14.52a20.2,20.2,0,0,0-.2,10.77c1.23,4.54,1.86,9.44,4.81,13.43-.24,2.11,1.51,1.68,2.3,1.38,3.15-1.19,6.24-2.58,9.27-4.08a.94.94,0,0,0-.29-1.8c-2-.42-1.86-1.56-.55-2.18,4.24-2,7.2-5.37,10.45-8.49.38-.36,1.2-.26,1.82-.38a15.22,15.22,0,0,1-1.07,1.55c-1,1.12-2.82,2.27-2.73,3.27.14,1.53,1.52,3,2.54,4.37.79,1.05,1.91,1.86,2.75,2.89.17.2-.2,1-.48,1.34-.13.18-1,.08-1,.06-.24-2.28-2.53-2.9-3.66-4.85-7.32,6.29-15.37,10.45-25.27,10.44l4.27-4.14c-3.3-3.69-3.4-7.91-4.33-11.81-.39-1.67-.28-3.37-.9-5.12-.85-2.4.71-5,1.09-7.49a25.08,25.08,0,0,1,2.92-8.23,27.08,27.08,0,0,1,5.37-6.25C212.8,391.78,213.5,392,214,392Z" transform="translate(-84.78 -194.97)"/><path d="M179,466c.43.33.86.95,1.29,1,8,.06,16,0,24,0,.23,0,.46-.34,1.13-.87H191.25c1-1.51,2.44-1,3.67-1.08,1.49-.11,3.51.57,4.38-.17,1.48-1.25,2.2.35,3.29.19a14.63,14.63,0,0,1,4.48,0c1.3.21,2.4,1.75,4,.42l-2.52-1.17c6.3-.47,10.6-4.14,15.85-7.62-.46,1.24-.51,1.95-.88,2.28-1.57,1.36-3.07,3-4.91,3.82-2.2,1-4.25,1.76-5.2,4.24a2.48,2.48,0,0,1-2,.92c-6.9-.44-13.66,1.84-20.56,1-4.52-.53-9-1.41-13.58-1-2-1.4-4.72-.24-6.48-1.18-2.17-1.16-4.2-.28-6.16-.86-4.48-1.3-9.21-1.61-13.54-3.48-.06,0,0-.31,0-.48,3.16.33,6.59,0,9.38,1.21,2.18.93,4.64-.21,6,.94,1.91,1.64,4,.34,5.94,1.37C174.11,466.48,176.73,465.9,179,466Z" transform="translate(-84.78 -194.97)"/><path d="M140,376c-3,0-5.51,0-8,0a4.2,4.2,0,0,1-4.06-4.37,2.52,2.52,0,0,1,1.78-2.57,3,3,0,0,0,2.33-3.1,2.08,2.08,0,0,1,2.33-2c1,0,2-.05,3,0,2.13.16,2.82,1.37,2.67,3.85S140,373.08,140,376Z" transform="translate(-84.78 -194.97)"/><path d="M157,352.76c-2.07.68-3.74-.05-5.57,1.07-1.58,1-4.06.22-5.93-.88-2.15-1.27-2.12-5.18-.08-5.67,2.42-.58,2.42-2.7,3.6-4,.5-.56,3.91-2.38,4.57-2.21a4.88,4.88,0,0,1,3.09,5.81C155.72,349.78,155.72,349.84,157,352.76Z" transform="translate(-84.78 -194.97)"/><path d="M211.71,372c-1.33,0-2.67-.06-4,0-2,.11-2.85-1.49-3.61-2.81-.31-.54.26-1.91.84-2.53a5.41,5.41,0,0,1,2.78-1.6c1.1-.2,1.33-.58,1.31-1.57,0-.78-.05-2,.37-2.26a10.19,10.19,0,0,1,4-1.18c1.77-.13,3.62,1.85,3.58,3.77,0,1.56.7,3.33-.89,4.62-.09.07-.06.31-.07.47-.25,3.07-.25,3.07-2.79,3.08Z" transform="translate(-84.78 -194.97)"/><path d="M184,373.33v1c0,3.52,0,3.61-3.3,4.43a10.19,10.19,0,0,1-7-.72c-2.13-1-2.67-4.86-.12-6,1.56-.67,2.35-1.28,2.48-3,.07-1,3.74-3,4.71-2.82a3.89,3.89,0,0,1,3.23,4.07C184,371.33,184,372.33,184,373.33Z" transform="translate(-84.78 -194.97)"/><path d="M135,445c-1.66,3.59-1.62,3.78,1.68,7.18l.49-2.91c.23,0,.65,0,.67.1.46,2.28,2.3,3.44,4,4.59,2.37,1.62,9.54,3.83,12.18,4v2c-2.15.37-3.89-1-5.87-1.37l-1-.21c.19.53.23,1.28.61,1.54,1.07.72,2.71.52,3.31,2-2.54-.2-4.91-.35-6.13-3.38-.48-1.19-2.39-1.91-3.77-2.59a26.57,26.57,0,0,1-8.13-5.59C130.85,448.14,131.72,445.89,135,445Z" transform="translate(-84.78 -194.97)"/><path d="M308,249.17a3.24,3.24,0,0,1-.47.79c-2.65,2.33-5.3,4.66-8,7a.93.93,0,0,1-.91.06,2.42,2.42,0,0,1-.53-2.54c1.69-2.44,3.4-4.86,5.22-7.2.31-.39.6-1.69,1.72-.7.91.8,2,1.43,2.93,2.16C308.07,248.75,308,249,308,249.17Z" transform="translate(-84.78 -194.97)"/><path d="M233,416c0-.49-.21-1.21,0-1.45,3.2-3.08,3.51-7.14,4-11.18.25-2.18.54-4.39,3-5.37-.45,2.28-.88,4.56-1.34,6.84a9.5,9.5,0,0,0-.61,2.68c.28,3-1.06,5.2-3.17,7.08C234.3,415.12,233.63,415.54,233,416Z" transform="translate(-84.78 -194.97)"/><path d="M242,364c.11-.95-.05-2.07.4-2.81.93-1.52.82-2.63-.48-3.81s-1.92-2.3.08-3.38c1.18,4.15,3.46,5.13,7,3l3.66,3c-2.34,0-3.77,0-5.2,0-1.79,0-4.08-.67-3.68,2.63C243.83,363,242.62,363.54,242,364Z" transform="translate(-84.78 -194.97)"/><path d="M230,375c1.17-4.14,3.74-7.08,7-8C234.53,369.55,233.08,373,230,375Z" transform="translate(-84.78 -194.97)"/><path d="M242,354l4-3c-.63,3.29-.62,3.28,2.25,5,.33.2.5.65.75,1-1.42,0-2.82.19-3.86-1.29C244.44,354.71,243.57,353.59,242,354Z" transform="translate(-84.78 -194.97)"/><path d="M209.57,442.43c2.65-.53,4.9-1,7.17-1.4.4-.07.86.22,1.49.4C212.79,443,212.79,443,209.57,442.43Z" transform="translate(-84.78 -194.97)"/><path d="M179,466v-1h6.84C183.62,466.28,181.28,465.87,179,466Z" transform="translate(-84.78 -194.97)"/><path d="M237,367c.91-2.27,2.95-2.65,5-3C241.09,366.27,239.05,366.65,237,367Z" transform="translate(-84.78 -194.97)"/><path d="M211.16,405a16.3,16.3,0,0,1,1.85,0c1.39.17,2.24-.14,2-1.81,0-.35.34-.76.53-1.14a4.13,4.13,0,0,0,.47,1.29,1.8,1.8,0,0,0,1.13.62c1.13.11,2.78-.21.86,1.55a3.81,3.81,0,0,0,.8.47c.69.22,1.4.39,2.11.58A7.27,7.27,0,0,1,219,408c-1.55.47-1.19,1.18-.49,2.07.87,1.12-.67,1.12-.83,1.77-.23-.27-.59-.5-.68-.8C215.67,406.23,215.66,406.22,211.16,405Z" transform="translate(-84.78 -194.97)"/><path d="M218.42,422.16c-1.3-2.46,1.32-4.06.87-6.18C221,418.32,219.3,420.08,218.42,422.16Z" transform="translate(-84.78 -194.97)"/><path d="M302,332.39a7.55,7.55,0,0,1-2.21,1.3c-1.59.26-3.3,0-4.83.39-1.22.33-2.24,1.38-4,1.46.84-.84,1.73-2.44,2.51-2.38C296.34,333.36,298.92,330.83,302,332.39Z" transform="translate(-84.78 -194.97)"/><path d="M284.81,336.32c-3.56.14-7.37,1.75-10.63-1.16Z" transform="translate(-84.78 -194.97)"/><ellipse cx="181.22" cy="140.53" rx="5.66" ry="0.35"/><path d="M245.15,365.88v-3.72l.49-.06a5.36,5.36,0,0,1,.34,1.38c0,.91.09,1.69,1.24,1.5s2.05-.6,3.1-.76a5.25,5.25,0,0,1,1.67.27c-.45.47-.88,1.28-1.38,1.33C248.87,366,247.1,365.88,245.15,365.88Z" transform="translate(-84.78 -194.97)"/><path d="M278,364c1,.92,1.62,1.47,2.21,2.05a9.52,9.52,0,0,1,.79,1,13,13,0,0,1-2.09.95c-.22.05-.83-.5-.87-.82A27,27,0,0,1,278,364Z" transform="translate(-84.78 -194.97)"/><path d="M281.26,365.94c.87,2.42,1.12,3.78.18,5.1a5.88,5.88,0,0,1-1,.86c-.13-.45-.47-1.22-.37-1.28C281.45,369.76,280.81,368.11,281.26,365.94Z" transform="translate(-84.78 -194.97)"/><path d="M266.21,355.29a21.21,21.21,0,0,1,3.58,1.15c.17.09-.48,1.5-.49,2.31,0,.4,1.23.86,0,1.21a1.62,1.62,0,0,1-1.21-.46c.12-1.71-.12-3-2.34-2.54-.05,0-.39-.66-.29-.83A3.65,3.65,0,0,1,266.21,355.29Z" transform="translate(-84.78 -194.97)"/><path d="M292.92,365.58c.9-.9,1.7-1.79,2.61-2.54.22-.17,1,0,1.24.31a1.34,1.34,0,0,1,.07,1.26C296,366,294.77,366.45,292.92,365.58Z" transform="translate(-84.78 -194.97)"/></svg>